# xmcd CD database file
#
# Track frame offsets:
#	150
#	21325
#	44480
#	63418
#	84567
#	107725
#	138033
#	332550
#
# Disc length: 4440 seconds
#
# Revision: 1
# Processed by: cddbd v1.5.2PL0 Copyright (c) Steve Scherf et al.
# Submitted via: CDex 1.70beta2
#
DISCID=67115608
DTITLE=CHEMISTRY - YOUR NAME NEVER GONE/Now or Never/You Got Me
DYEAR=1900
DGENRE=J ポップ
TTITLE0=YOUR NAME NEVER GONE
TTITLE1=Now or Never
TTITLE2=You Got Me
TTITLE3=YOUR NAME NEVER GONE(Instrumental)
TTITLE4=Now or Never(Instrumental)
TTITLE5=You Got Me(Instrumental)
TTITLE6=データ トラック
TTITLE7=データ トラック
EXTD=
EXTT0=
EXTT1=
EXTT2=
EXTT3=
EXTT4=
EXTT5=
EXTT6=
EXTT7=
PLAYORDER=
